<?xml version="1.0" encoding="UTF-8"?>
<!DOCTYPE svg PUBLIC "-//W3C//DTD SVG 1.1//EN" "http://www.w3.org/Graphics/SVG/1.1/DTD/svg11.dtd">
<!-- Creator: CorelDRAW 2020 (64-Bit) -->
<svg xmlns="http://www.w3.org/2000/svg" xml:space="preserve" width="1007px" height="301px" version="1.1" style="shape-rendering:geometricPrecision; text-rendering:geometricPrecision; image-rendering:optimizeQuality; fill-rule:evenodd; clip-rule:evenodd"
viewBox="0 0 594.58 177.89"
 xmlns:xlink="http://www.w3.org/1999/xlink"
 xmlns:xodm="http://www.corel.com/coreldraw/odm/2003">
 <defs>
  <style type="text/css">
   <![CDATA[
    .str0 {stroke:#FEFEFE;stroke-width:1.39;stroke-miterlimit:22.9256}
    .str1 {stroke:#2F3132;stroke-width:1.39;stroke-miterlimit:22.9256}
    .fil1 {fill:none}
    .fil0 {fill:#2F3132}
    .fil2 {fill:#2F3132;fill-rule:nonzero}
   ]]>
  </style>
 </defs>
 <g id="Слой_x0020_1">
  <metadata id="CorelCorpID_0Corel-Layer"/>
  <rect class="fil0 str0" x="0.7" y="2.71" width="19.21" height="124.78"/>
  <path class="fil0 str0" d="M74.44 36.81c26.06,0 47.19,20.34 47.19,45.42 0,25.09 -21.13,45.43 -47.19,45.43 -26.06,0 -47.19,-20.34 -47.19,-45.43 0,-25.08 21.13,-45.42 47.19,-45.42zm0 20.95c14.04,0 25.43,10.96 25.43,24.47 0,13.52 -11.39,24.48 -25.43,24.48 -14.05,0 -25.43,-10.96 -25.43,-24.48 0,-13.51 11.38,-24.47 25.43,-24.47z"/>
  <path class="fil0 str0" d="M190.64 40.17l30.9 0 0 15.7 -9.33 0c5.64,7.5 8.97,16.78 8.97,26.84 0,24.88 -20.43,45.06 -45.62,45.06 -25.2,0 -45.63,-20.18 -45.63,-45.06 0,-24.89 20.43,-45.06 45.63,-45.06 5.28,0 10.36,0.89 15.08,2.52zm-15.08 16.97c14.29,0 25.89,11.45 25.89,25.57 0,14.12 -11.6,25.56 -25.89,25.56 -14.3,0 -25.89,-11.44 -25.89,-25.56 0,-14.12 11.59,-25.57 25.89,-25.57z"/>
  <path class="fil0 str0" d="M220.44 132.6c-0.26,24.67 -20.58,44.59 -45.62,44.59 -25.04,0 -45.37,-19.92 -45.62,-44.59l19.74 0c0.25,13.91 11.74,25.1 25.88,25.1 14.14,0 25.63,-11.19 25.88,-25.1l19.74 0z"/>
  <rect class="fil0 str0" x="230.59" y="40.02" width="22.87" height="85.21"/>
  <circle class="fil0 str0" cx="241.93" cy="15.01" r="14.31"/>
  <path class="fil0 str0" d="M262.68 38.91l10.32 0 0 -26.56 22.51 0 0 26.56 12.17 0 0 19.55 -12.17 0 0 68.24 -22.51 0 0 -68.24 -10.32 0 0 -19.55z"/>
  <path class="fil0 str0" d="M394.28 111.58c-8.32,10.95 -16.52,18.03 -36.51,18.03 -19.98,0 -46.17,-19.81 -46.42,-44.48l-0.1 -4.14c0.24,-24.67 19.35,-44.48 42.88,-44.6 36.84,-0.18 47.65,31.8 44.04,53.65l-65.68 0c2.54,11.48 12.9,20.08 25.28,20.08 9.49,0 17.78,-5.04 22.29,-12.56l14.22 14.02zm-63.82 -36.06l47.34 0c-2.54,-11.26 -12.17,-19.63 -23.67,-19.63 -11.49,0 -21.12,8.37 -23.67,19.63z"/>
  <path class="fil0 str0" d="M453.85 37.06c14.71,0 27.86,6.39 36.62,16.45l-15.01 16.06c-4.59,-6.81 -12.55,-11.3 -21.61,-11.3 -14.22,0 -25.75,11.09 -25.75,24.78 0,13.69 11.53,24.78 25.75,24.78 8.83,0 16.63,-4.28 21.26,-10.8l15.94 14.88c-8.76,10.45 -22.17,17.13 -37.2,17.13 -26.39,0 -47.78,-20.59 -47.78,-45.99 0,-25.4 21.39,-45.99 47.78,-45.99z"/>
  <path class="fil0 str0" d="M498.81 2.62l22.87 0 0 45.73c6.98,-6.48 15.94,-10.38 25.71,-10.38 21.92,0 35.43,19.46 35.87,43.84l-0.36 43.26 -20.06 0 0 -43.26c-0.22,-13.9 -5.46,-23.6 -18.77,-25.25 -8.75,-1.09 -17.54,3.47 -22.39,11.12l0 59.61 -22.87 0 0 -124.67z"/>
  <ellipse class="fil1 str1" cx="586.1" cy="30.22" rx="7.78" ry="7.58"/>
  <path class="fil2 str1" d="M582.65 34.15l0 -7.85 3.48 0c0.7,0 1.23,0.07 1.59,0.21 0.37,0.14 0.66,0.39 0.88,0.74 0.21,0.36 0.32,0.76 0.32,1.19 0,0.56 -0.18,1.02 -0.54,1.41 -0.36,0.38 -0.92,0.62 -1.67,0.73 0.28,0.13 0.49,0.26 0.63,0.39 0.3,0.27 0.59,0.62 0.86,1.04l1.36 2.14 -1.3 0 -1.04 -1.63c-0.3,-0.48 -0.55,-0.84 -0.75,-1.09 -0.2,-0.25 -0.37,-0.42 -0.53,-0.52 -0.15,-0.1 -0.31,-0.17 -0.47,-0.21 -0.12,-0.02 -0.31,-0.04 -0.58,-0.04l-1.2 0 0 3.49 -1.04 0zm1.04 -4.39l2.23 0c0.47,0 0.84,-0.05 1.11,-0.14 0.27,-0.1 0.47,-0.26 0.61,-0.48 0.14,-0.21 0.21,-0.45 0.21,-0.7 0,-0.37 -0.14,-0.68 -0.41,-0.92 -0.27,-0.24 -0.69,-0.36 -1.27,-0.36l-2.48 0 0 2.6z"/>
 </g>
</svg>
